<?xml version="1.0" encoding="utf-8"?><svg xmlns="http://www.w3.org/2000/svg" xmlns:xlink="http://www.w3.org/1999/xlink"><symbol viewBox="0 0 64 64" id="agreement" xmlns="http://www.w3.org/2000/svg"><path d="M13.37 64h35.7a.92.92 0 00.92-.92V49.5a22 22 0 000-41V.92a.92.92 0 00-.92-.92H.92A.92.92 0 000 .92V50.4a.9.9 0 00.23.4L12.8 63.7a.94.94 0 00.42.24h.11zM48 62V50.17a22 22 0 110-42.34V2H2v47h12a1.06 1.06 0 011 1v12zm-35-1L3 51h10zm29-12a20 20 0 10-20-20 20 20 0 0020 20zm11.79-27.38a1 1 0 10-1.58-1.24L40.33 35.59l-6.71-5.37a1 1 0 00-1.24 1.56l7.5 6a1 1 0 00.74.21 1 1 0 00.67-.37z" fill-rule="evenodd"/></symbol><symbol viewBox="0 0 64 64" id="application" xmlns="http://www.w3.org/2000/svg"><path d="M18 0a2 2 0 00-2 2v13H2a2 2 0 00-2 2v45a2 2 0 002 2h60a2 2 0 002-2V17a2 2 0 00-2-2H48V2a2 2 0 00-2-2zm28 5V2H18v3zm0 2H18v8h28zM16 17H2v10l22 15.58V42a2 2 0 012-2h12a2 2 0 012 2v.58L62 27V17H16zM2 62V29.45L24 45v3a2 2 0 002 2h12a2 2 0 002-2v-3l22-15.55V62zm24-14v-6h12v6z" fill-rule="evenodd"/></symbol><symbol viewBox="0 0 11 6" id="arrow-down" xmlns="http://www.w3.org/2000/svg"><path d="M10.75.34A1 1 0 009.34.25L5.5 3.66 1.66.25a1 1 0 00-1.32 1.5l4.5 4a1 1 0 001.32 0l4.5-4a1 1 0 00.09-1.41z"/></symbol><symbol viewBox="0 0 23 18" id="arrow-right" xmlns="http://www.w3.org/2000/svg"><path d="M22.21 8.29L15 1a1 1 0 00-1.42 1.42L19.09 8H1.5a1 1 0 000 2h17.59l-5.55 5.54A1 1 0 0015 17l7.25-7.25a1 1 0 00-.04-1.46z"/></symbol><symbol viewBox="0 0 30 30" id="calendar" xmlns="http://www.w3.org/2000/svg"><path d="M25.31 2.81h-3.75v-.93a.94.94 0 10-1.87 0v.93h-9.38v-.93a.88.88 0 00-.93-.94.88.88 0 00-.94.94v.93H4.69A4.65 4.65 0 000 7.5v16.88a4.64 4.64 0 004.69 4.68h20.62A4.64 4.64 0 0030 24.38V7.5a4.65 4.65 0 00-4.69-4.69zM1.87 7.5a2.89 2.89 0 012.82-2.81h3.75v.94a.88.88 0 00.94.93.88.88 0 00.93-.93v-.94h9.38v.94a.94.94 0 001.87 0v-.94h3.75a2.89 2.89 0 012.82 2.81v2.81H1.87zm26.25 16.88a2.88 2.88 0 01-2.81 2.81H4.69a2.89 2.89 0 01-2.82-2.81V12.19h26.25z"/><path d="M6.56 24.38a1.72 1.72 0 001.32-.57 2 2 0 00.56-1.31 2 2 0 00-.56-1.31 1.82 1.82 0 00-2.63 0 1.67 1.67 0 00-.56 1.31 2 2 0 00.56 1.31 1.68 1.68 0 001.31.57zm0-5.63a1.74 1.74 0 001.32-.56 2.06 2.06 0 00.56-1.31 2.07 2.07 0 00-.56-1.32 1.82 1.82 0 00-2.63 0 1.82 1.82 0 000 2.63 1.71 1.71 0 001.31.56zm5.63 5.63a1.7 1.7 0 001.31-.57 1.81 1.81 0 000-2.62 1.81 1.81 0 00-2.62 0 1.79 1.79 0 000 2.62 1.67 1.67 0 001.31.57zm0-5.63a1.72 1.72 0 001.31-.56 1.82 1.82 0 000-2.63 1.81 1.81 0 00-2.62 0 2 2 0 00-.57 1.32 2 2 0 00.57 1.31 1.69 1.69 0 001.31.56zm5.62 5.63a2 2 0 001.88-1.88 1.68 1.68 0 00-.57-1.31 1.81 1.81 0 00-2.62 0 1.81 1.81 0 000 2.62 1.68 1.68 0 001.31.57zm0-5.63a1.93 1.93 0 001.88-1.87 2 2 0 00-.57-1.32 1.81 1.81 0 00-2.62 0 1.82 1.82 0 000 2.63 1.71 1.71 0 001.31.56zm5.63 5.63a1.68 1.68 0 001.31-.57 2 2 0 00.56-1.31 2 2 0 00-.56-1.31 1.82 1.82 0 00-2.63 0 1.71 1.71 0 00-.56 1.31 2 2 0 00.56 1.31 1.72 1.72 0 001.32.57zm0-5.63a1.91 1.91 0 001.87-1.87 2.07 2.07 0 00-.56-1.32 1.82 1.82 0 00-2.63 0 2.07 2.07 0 00-.56 1.32 2.06 2.06 0 00.56 1.31 1.74 1.74 0 001.32.56z"/></symbol><symbol viewBox="0 0 16 16" id="clock" xmlns="http://www.w3.org/2000/svg"><path d="M11 7H9V5a1 1 0 00-2 0v3a1 1 0 001 1h3a1 1 0 000-2z"/><path d="M8 0a8 8 0 108 8 8 8 0 00-8-8zm0 14a6 6 0 116-6 6 6 0 01-6 6z"/></symbol><symbol viewBox="0 0 16.14 16.14" id="cross" xmlns="http://www.w3.org/2000/svg"><path d="M.29 14.44a1 1 0 000 1.41 1 1 0 001.42 0l6.36-6.36 6.37 6.36a1 1 0 001.41-1.41L9.49 8.07l6.36-6.36a1 1 0 000-1.42 1 1 0 00-1.41 0L8.07 6.66 1.71.29A1 1 0 00.29 1.71l6.37 6.36z" fill-rule="evenodd"/></symbol><symbol viewBox="0 0 64 64" id="execution" xmlns="http://www.w3.org/2000/svg"><path d="M13.37 64h35.7a.92.92 0 00.92-.92V38l12.85-12.81a3 3 0 000-4.24L60 18.12a3 3 0 00-4.24 0L50 23.9V.92a.92.92 0 00-.93-.92H.92A.92.92 0 000 .92V50.4a.9.9 0 00.23.4L12.8 63.7a.94.94 0 00.42.24h.11zM48 25.9V2H2v47h12a1.06 1.06 0 011 1v12h33V40l-3.27 3.3a3 3 0 01-.94.64l-4.95 2.12a3 3 0 01-3.94-3.94l2.1-4.95a3 3 0 01.64-.94zM13 61L3 51h10zM6 13a1 1 0 011-1h36a1 1 0 010 2H7a1 1 0 01-1-1zm1 6a1 1 0 000 2h36a1 1 0 000-2zM6 40a1 1 0 011-1h19a1 1 0 010 2H7a1 1 0 01-1-1zm52.6-20.46a1 1 0 00-1.42 0L55.77 21 60 25.19l1.42-1.41a1 1 0 000-1.42zm-18.39 17l14.14-14.18 1.42 1.42-14.14 14.14zM43 39.33l14.18-14.14 1.42 1.42-14.14 14.14zm-6.3 3.58L38.85 38 43 42.11l-4.94 2.11a1 1 0 01-1.32-1.31z" fill-rule="evenodd"/></symbol><symbol viewBox="0 0 50 64" id="family-law" xmlns="http://www.w3.org/2000/svg"><path d="M13.48 64h-.23a.94.94 0 01-.42-.24L.26 50.82a.9.9 0 01-.23-.4H0V.92A.92.92 0 01.92 0h48.15a.92.92 0 01.93.92v62.16a.92.92 0 01-.92.92h-35.6zM15 62h33V2H2v47h12a1.06 1.06 0 011 1zM3 51l10 10V51zm28.5-24a7.5 7.5 0 10-5.19-12.91 9.5 9.5 0 010 10.82A7.45 7.45 0 0031.5 27zm-6.5-.57a9.5 9.5 0 100-13.86 9.5 9.5 0 100 13.86zm-1.31-1.52a7.5 7.5 0 110-10.82 9.5 9.5 0 000 10.82zM25 23.24a7.49 7.49 0 000-7.48 7.49 7.49 0 000 7.48zM6 35a1 1 0 011-1h36a1 1 0 010 2H7a1 1 0 01-1-1zm1 6a1 1 0 000 2h36a1 1 0 000-2z" fill-rule="evenodd"/></symbol><symbol viewBox="0 0 63.61 62.68" id="hammer" xmlns="http://www.w3.org/2000/svg"><path d="M0 54.68a2 2 0 012-2h3v-3a2 2 0 012-2h30a2 2 0 012 2v3h3a2 2 0 012 2v6a2 2 0 01-2 2H2a2 2 0 01-2-2zm37-2H7v-3h30zm-35 2h40v6H2zm31.63-25.91l1.44-.65a1 1 0 011.32.5l2.12 4.72a1 1 0 01-.51 1.32L15.31 44.83a1 1 0 01-1.32-.5l-2.12-4.71a1 1 0 01.51-1.33l1.44-.64L5 18l-1.45.65a1 1 0 01-1.32-.51L.15 13.46a1 1 0 01.5-1.32L23.35 2a1 1 0 011.32.5l2.11 4.71a1 1 0 01-.5 1.32l-1.45.65 2.94 6.54L53.66 4.08l-.25-.56a1 1 0 01.5-1.32L58.63.09a1 1 0 011.37.5l3.58 8A1 1 0 0163 9.9L58.31 12a1 1 0 01-1.32-.5l-.4-.89L30.7 22.23zm-1.87.72L15.6 36.73 6.9 17.31l16.15-7.24zm-28.08-13l20.87-9.4-1.3-2.89-20.87 9.35zm32.59 16.8L15.4 42.6l-1.29-2.89L35 30.35zM30 20.36L55.76 8.8l-1.29-2.89-25.79 11.56zM61.29 8.48L58.4 9.77l-2.76-6.15 2.89-1.3z" fill-rule="evenodd"/></symbol><symbol viewBox="0 0 64 64" id="house" xmlns="http://www.w3.org/2000/svg"><path d="M57 64H7a1 1 0 01-1-1V31H1a1 1 0 01-.69-1.71L31.12.28a1.35 1.35 0 011.64 0l9.17 8.77V4a1 1 0 011-1h8a1 1 0 011 1v14.61l11.76 10.67A1 1 0 0163 31h-5v32a1 1 0 01-1 1zM8 62h48V31H8zM3.49 29h57L31.93 2.5zm40.44-18l6 5.74V5h-6zm-1.86 43h-20a1 1 0 01-1-1V37a1 1 0 011-1h20a1 1 0 011 1v16a1 1 0 01-1 1zm-9-2h8v-6h-8zm-10 0h8v-6h-8zm10-8h8v-6h-8zm-10 0h8v-6h-8z"/></symbol><symbol viewBox="0 0 50 64" id="inheritance" xmlns="http://www.w3.org/2000/svg"><path d="M13.48 64h-.23a.94.94 0 01-.42-.24L.26 50.82a.9.9 0 01-.23-.4H0V.92A.92.92 0 01.92 0h48.15a.92.92 0 01.93.92v62.16a.92.92 0 01-.92.92h-35.6zM15 62h33V2H2v47h12a1.06 1.06 0 011 1zM3 51l10 10V51zm3-38a1 1 0 011-1h36a1 1 0 010 2H7a1 1 0 01-1-1zm1 6a1 1 0 000 2h36a1 1 0 000-2zm-1 8a1 1 0 011-1h36a1 1 0 110 2H7a1 1 0 01-1-1zm36 16a6 6 0 11-6-6 6 6 0 016 6zm2 0a8 8 0 11-8-8 8 8 0 018 8z" fill-rule="evenodd"/></symbol><symbol viewBox="0 0 22 22" id="link" xmlns="http://www.w3.org/2000/svg"><path d="M13.64 9.64L20 3.29v1.65a.94.94 0 001.87 0v-4a.94.94 0 00-.93-.94h-4a.94.94 0 100 1.87h1.65l-6.36 6.36a1 1 0 001.41 1.41z"/><path d="M21 10a.94.94 0 00-.95.93l-.08 9.15h-18V1.87h9.07a.94.94 0 000-1.87H.94a1 1 0 00-.67.27A1 1 0 000 .94V21a1 1 0 00.27.66 1 1 0 00.67.34h19.91a.94.94 0 00.94-.93L21.87 11a.93.93 0 00-.87-1z"/></symbol><symbol viewBox="0 0 66 64" id="pc" xmlns="http://www.w3.org/2000/svg"><path d="M0 2a2 2 0 012-2h62a2 2 0 012 2v45a2 2 0 01-2 2H41v13h11a1 1 0 010 2H14a1 1 0 010-2h11V49H2a2 2 0 01-2-2zm27 47h12v13H27zm37-2H2V2h62zM9 39a1 1 0 000 2h48a1 1 0 000-2zm3.28-17.18c-.48-.63-.84-1.14-1.07-1.5v-.05c.23-.34.57-.84 1-1.44a30.82 30.82 0 014.09-4.42 26.92 26.92 0 016-4 14.58 14.58 0 00-.67 19.75 28.2 28.2 0 01-5.11-3.7 32.94 32.94 0 01-4.24-4.64zm23.91 10.87a24.14 24.14 0 01-3.86.31 21 21 0 01-2.66-.17A12.59 12.59 0 0132.52 8h1.06a12.6 12.6 0 012.61 24.66zm-6.88 2.11a14.7 14.7 0 003.35.39 14.47 14.47 0 004-.55 29 29 0 0013.85-6.74 36.69 36.69 0 004.71-4.85c.53-.66.93-1.22 1.21-1.61l.31-.46.08-.13-.82-.57.85.52a1 1 0 000-1.08l-.83.56.83-.56v-.12l-.32-.44c-.29-.38-.71-.92-1.26-1.56a37.45 37.45 0 00-4.81-4.69A29 29 0 0033.71 6h-1.38A26 26 0 0015 12.89a32.79 32.79 0 00-4.35 4.71c-.49.64-.86 1.18-1.1 1.56-.13.19-.22.34-.29.45l-.07.12.87.5-.87-.5a1 1 0 000 1l.86-.5-.86.5a.88.88 0 00.07.13l.3.46c.26.39.64.94 1.14 1.61a35.69 35.69 0 004.46 4.85 26.44 26.44 0 0014.15 7.02zM43.4 10.71a31.83 31.83 0 015.66 3.7 36.89 36.89 0 014.56 4.44c.51.6.9 1.1 1.16 1.45-.25.36-.62.88-1.12 1.5a35.25 35.25 0 01-4.45 4.58 30 30 0 01-5.52 3.76 14.6 14.6 0 00-.29-19.43zm-10.74 6.35a3.53 3.53 0 103.53 3.53 3.54 3.54 0 00-3.53-3.53zm-5.54 3.53a5.54 5.54 0 115.54 5.53 5.54 5.54 0 01-5.54-5.53z" fill-rule="evenodd"/></symbol><symbol viewBox="0 0 64 64" id="share" xmlns="http://www.w3.org/2000/svg"><path d="M24.15.58A30 30 0 0160 30a1 1 0 01-1 1H31v28a1 1 0 01-1 1A30 30 0 0124.15.58zm16.57 3.55A28 28 0 1029 58V30a1 1 0 011-1h28A28 28 0 0040.72 4.13zM34 35a1 1 0 011-1h28a1 1 0 011 1 29 29 0 01-29 29 1 1 0 01-1-1V35zm2 8.83V49l13-13h-5.17zM41 36l-5 5v-5zm10.83 0L36 51.83V57l21-21zm8 0L36 59.83V62a26.58 26.58 0 003.35-.33l22.3-22.3A26.58 26.58 0 0062 36zm.94 7.06L43.06 60.77c.77-.24 1.53-.52 2.27-.83a27 27 0 0014.61-14.61c.31-.74.59-1.5.83-2.27z" fill-rule="evenodd"/></symbol><symbol viewBox="0 0 64 64" id="stamp" xmlns="http://www.w3.org/2000/svg"><path d="M23 11a9 9 0 0118 0v.61c-.51 4-2.49 5.77-4.28 6.6a8.17 8.17 0 01-2.54.69 6.4 6.4 0 01-.79 0h-.37a1 1 0 00-1 1 1 1 0 00.37.78 1.13 1.13 0 00.24.15 1.18 1.18 0 00.19.06h.52a6.9 6.9 0 001-.05 9.84 9.84 0 002.66-.59V26a14.7 14.7 0 007.16 12.31c.37.23.75.45 1.12.65h-26.4c.38-.2.76-.41 1.14-.65A13.89 13.89 0 0027 26v-7.5l-.4-.3A9 9 0 0123 11zm20 .81a11 11 0 01-4 7.68V26a12.66 12.66 0 006.22 10.67 18.12 18.12 0 004.12 1.9c.56.17 1 .29 1.34.37l.37.07h7a6 6 0 016 6V56a1 1 0 01-1 1H58v6a1 1 0 01-1 1H9a1 1 0 01-1-1v-6H1a1 1 0 01-1-1V45a6 6 0 016-6h7l.38-.08c.34-.07.82-.19 1.4-.37a18.6 18.6 0 004.22-1.9A11.92 11.92 0 0025 26v-6.51A11 11 0 1143 11v.61a1.36 1.36 0 010 .2zM10 62v-5h46v5zm52-7H2V45a4 4 0 014-4h52a4 4 0 014 4z" fill-rule="evenodd"/></symbol><symbol viewBox="0 0 64 64" id="wallet" xmlns="http://www.w3.org/2000/svg"><path d="M41.83.44a1 1 0 00-1.38-.27l-12.1 8.06-9-8a1 1 0 00-.86-.23 1 1 0 00-.7.46L9.44 14H1a1 1 0 00-1 1v48a1 1 0 001 1h62a1 1 0 001-1V15a1 1 0 00-1-1H51zM10 16h52v14H38a5 5 0 00-5 5v8a5 5 0 005 5h24v14H2V16zm16.54-6.7L19.69 14h-7.9l7.08-11.47zM48.61 14L40.73 2.38 23.3 14zM62 32v14H38a3 3 0 01-3-3v-8a3 3 0 013-3zm-18 7a2 2 0 11-2-2 2 2 0 012 2zm2 0a4 4 0 11-4-4 4 4 0 014 4z" fill-rule="evenodd"/></symbol></svg>