<svg xmlns="http://www.w3.org/2000/svg" viewBox="0 0 64 64"><path d="M13.37 64h35.7a.92.92 0 0 0 .92-.92V49.5a22 22 0 0 0 0-41V.92a.92.92 0 0 0-.92-.92H.92A.92.92 0 0 0 0 .92V50.4a.9.9 0 0 0 .23.4L12.8 63.7a.94.94 0 0 0 .42.24h.11zM48 62V50.17a22 22 0 1 1 0-42.34V2H2v47h12a1.06 1.06 0 0 1 1 1v12zm-35-1L3 51h10zm29-12a20 20 0 1 0-20-20 20 20 0 0 0 20 20zm11.79-27.38a1 1 0 1 0-1.58-1.24L40.33 35.59l-6.71-5.37a1 1 0 0 0-1.24 1.56l7.5 6a1 1 0 0 0 .74.21 1 1 0 0 0 .67-.37z" fill-rule="evenodd"/></svg>