
<svg xmlns="http://www.w3.org/2000/svg" viewBox="0 0 30 30"><path d="M25.31 2.81h-3.75v-.93a.94.94 0 1 0-1.87 0v.93h-9.38v-.93a.88.88 0 0 0-.93-.94.88.88 0 0 0-.94.94v.93H4.69A4.65 4.65 0 0 0 0 7.5v16.88a4.64 4.64 0 0 0 4.69 4.68h20.62A4.64 4.64 0 0 0 30 24.38V7.5a4.65 4.65 0 0 0-4.69-4.69zM1.87 7.5a2.89 2.89 0 0 1 2.82-2.81h3.75v.94a.88.88 0 0 0 .94.93.88.88 0 0 0 .93-.93v-.94h9.38v.94a.94.94 0 0 0 1.87 0v-.94h3.75a2.89 2.89 0 0 1 2.82 2.81v2.81H1.87zm26.25 16.88a2.88 2.88 0 0 1-2.81 2.81H4.69a2.89 2.89 0 0 1-2.82-2.81V12.19h26.25z"/><path d="M6.56 24.38a1.72 1.72 0 0 0 1.32-.57 2 2 0 0 0 .56-1.31 2 2 0 0 0-.56-1.31 1.82 1.82 0 0 0-2.63 0 1.67 1.67 0 0 0-.56 1.31 2 2 0 0 0 .56 1.31 1.68 1.68 0 0 0 1.31.57zM6.56 18.75a1.74 1.74 0 0 0 1.32-.56 2.06 2.06 0 0 0 .56-1.31 2.07 2.07 0 0 0-.56-1.32 1.82 1.82 0 0 0-2.63 0 1.82 1.82 0 0 0 0 2.63 1.71 1.71 0 0 0 1.31.56zM12.19 24.38a1.7 1.7 0 0 0 1.31-.57 1.81 1.81 0 0 0 0-2.62 1.81 1.81 0 0 0-2.62 0 1.79 1.79 0 0 0 0 2.62 1.67 1.67 0 0 0 1.31.57zM12.19 18.75a1.72 1.72 0 0 0 1.31-.56 1.82 1.82 0 0 0 0-2.63 1.81 1.81 0 0 0-2.62 0 2 2 0 0 0-.57 1.32 2 2 0 0 0 .57 1.31 1.69 1.69 0 0 0 1.31.56zM17.81 24.38a2 2 0 0 0 1.88-1.88 1.68 1.68 0 0 0-.57-1.31 1.81 1.81 0 0 0-2.62 0 1.81 1.81 0 0 0 0 2.62 1.68 1.68 0 0 0 1.31.57zM17.81 18.75a1.93 1.93 0 0 0 1.88-1.87 2 2 0 0 0-.57-1.32 1.81 1.81 0 0 0-2.62 0 1.82 1.82 0 0 0 0 2.63 1.71 1.71 0 0 0 1.31.56zM23.44 24.38a1.68 1.68 0 0 0 1.31-.57 2 2 0 0 0 .56-1.31 2 2 0 0 0-.56-1.31 1.82 1.82 0 0 0-2.63 0 1.71 1.71 0 0 0-.56 1.31 2 2 0 0 0 .56 1.31 1.72 1.72 0 0 0 1.32.57zM23.44 18.75a1.91 1.91 0 0 0 1.87-1.87 2.07 2.07 0 0 0-.56-1.32 1.82 1.82 0 0 0-2.63 0 2.07 2.07 0 0 0-.56 1.32 2.06 2.06 0 0 0 .56 1.31 1.74 1.74 0 0 0 1.32.56z"/></svg>