<svg xmlns="http://www.w3.org/2000/svg" viewBox="0 0 64 64"><path d="M13.37 64h35.7a.92.92 0 0 0 .92-.92V38l12.85-12.81a3 3 0 0 0 0-4.24L60 18.12a3 3 0 0 0-4.24 0L50 23.9V.92a.92.92 0 0 0-.93-.92H.92A.92.92 0 0 0 0 .92V50.4a.9.9 0 0 0 .23.4L12.8 63.7a.94.94 0 0 0 .42.24h.11zM48 25.9V2H2v47h12a1.06 1.06 0 0 1 1 1v12h33V40l-3.27 3.3a3 3 0 0 1-.94.64l-4.95 2.12a3 3 0 0 1-3.94-3.94l2.1-4.95a3 3 0 0 1 .64-.94zM13 61L3 51h10zM6 13a1 1 0 0 1 1-1h36a1 1 0 0 1 0 2H7a1 1 0 0 1-1-1zm1 6a1 1 0 0 0 0 2h36a1 1 0 0 0 0-2zM6 40a1 1 0 0 1 1-1h19a1 1 0 0 1 0 2H7a1 1 0 0 1-1-1zm52.6-20.46a1 1 0 0 0-1.42 0L55.77 21 60 25.19l1.42-1.41a1 1 0 0 0 0-1.42zm-18.39 17l14.14-14.18 1.42 1.42-14.14 14.14zM43 39.33l14.18-14.14 1.42 1.42-14.14 14.14zm-6.3 3.58L38.85 38 43 42.11l-4.94 2.11a1 1 0 0 1-1.32-1.31z" fill-rule="evenodd"/></svg>