<svg xmlns="http://www.w3.org/2000/svg" viewBox="0 0 50 64"><path d="M13.48 64H13.25a.94.94 0 0 1-.42-.24L.26 50.82a.9.9 0 0 1-.23-.4H0V.92A.92.92 0 0 1 .92 0h48.15a.92.92 0 0 1 .93.92v62.16a.92.92 0 0 1-.92.92h-35.6zM15 62h33V2H2v47h12a1.06 1.06 0 0 1 1 1zM3 51l10 10V51zm28.5-24a7.5 7.5 0 1 0-5.19-12.91 9.5 9.5 0 0 1 0 10.82A7.45 7.45 0 0 0 31.5 27zm-6.5-.57a9.5 9.5 0 1 0 0-13.86 9.5 9.5 0 1 0 0 13.86zm-1.31-1.52a7.5 7.5 0 1 1 0-10.82 9.5 9.5 0 0 0 0 10.82zM25 23.24a7.49 7.49 0 0 0 0-7.48 7.49 7.49 0 0 0 0 7.48zM6 35a1 1 0 0 1 1-1h36a1 1 0 0 1 0 2H7a1 1 0 0 1-1-1zm1 6a1 1 0 0 0 0 2h36a1 1 0 0 0 0-2z" fill-rule="evenodd"/></svg>