<svg width="130" height="29" viewBox="0 0 130 29" xmlns="http://www.w3.org/2000/svg">

<path d="M28.8962 0H0V29H28.8962V0Z" fill="currentColor"/>
<path d="M43.2588 22.05C42.4775 22.0552 41.7035 21.8981 40.9855 21.5885C40.2861 21.2712 39.6529 20.8237 39.1196 20.2697C38.2852 19.4457 37.7145 18.3908 37.4805 17.2398C37.2464 16.0888 37.3596 14.8938 37.8055 13.8076C38.4065 12.3964 39.5267 11.2721 40.933 10.669C41.649 10.3533 42.4243 10.1959 43.2063 10.2074C43.8487 10.2103 44.4821 10.3591 45.0591 10.6426C45.6685 10.944 46.2236 11.3451 46.7017 11.8295L45.3876 13.1483C45.0816 12.8463 44.7315 12.5928 44.3495 12.3966C44.0128 12.2056 43.6325 12.1056 43.2457 12.1064C42.7185 12.1064 42.1963 12.2094 41.7083 12.4097C41.2409 12.6119 40.817 12.903 40.4599 13.2669C40.0948 13.6459 39.8089 14.0943 39.6189 14.5857C39.4075 15.0723 39.3001 15.5979 39.3035 16.1287C39.2999 16.6553 39.4074 17.1766 39.6189 17.6585C39.8089 18.1499 40.0948 18.5983 40.4599 18.9773C40.824 19.3293 41.2464 19.6149 41.7083 19.8213C42.1935 20.032 42.717 20.1397 43.2457 20.1378C43.6306 20.137 44.0095 20.0419 44.3495 19.8609C44.7375 19.6689 45.0889 19.41 45.3876 19.096L46.7017 20.4147C46.2267 20.8993 45.6708 21.2966 45.0591 21.5885C44.5002 21.8735 43.8855 22.0311 43.2588 22.05Z"/>
<path d="M53.548 10.326C55.1034 10.3244 56.5963 10.9408 57.7004 12.0404C58.8036 13.1563 59.4265 14.6621 59.435 16.2341C59.4405 17.0239 59.2793 17.806 58.9619 18.5288C58.6538 19.2353 58.2068 19.8722 57.6478 20.4015C57.1139 20.9548 56.4809 21.4021 55.7819 21.7202C55.0581 22.0259 54.2806 22.1829 53.4954 22.1818C52.7187 22.1593 51.9544 21.9799 51.2484 21.6543C50.5534 21.3359 49.9248 20.8884 49.3955 20.3355C48.8365 19.8063 48.3896 19.1694 48.0815 18.4628C47.7641 17.7401 47.6028 16.958 47.6084 16.1682C47.6514 14.6098 48.2971 13.1294 49.4087 12.0404C49.9517 11.4945 50.5971 11.062 51.3075 10.7678C52.0179 10.4735 52.7794 10.3233 53.548 10.326ZM53.548 12.2646C53.019 12.2599 52.495 12.3678 52.0105 12.5811C51.072 12.9877 50.3276 13.7442 49.9343 14.6911C49.7347 15.1809 49.632 15.705 49.6321 16.2341C49.6307 16.7591 49.7334 17.2791 49.9343 17.7639C50.1252 18.258 50.4161 18.707 50.7884 19.0827C51.1661 19.4491 51.6128 19.736 52.1025 19.9267C52.5861 20.1353 53.107 20.2429 53.6334 20.2429C54.1598 20.2429 54.6807 20.1353 55.1643 19.9267C55.6539 19.736 56.1007 19.4491 56.4783 19.0827C56.8507 18.707 57.1415 18.258 57.3325 17.7639C57.5333 17.2791 57.6361 16.7591 57.6347 16.2341C57.6347 15.705 57.5321 15.1809 57.3325 14.6911C56.9298 13.7368 56.1702 12.9792 55.2168 12.5811C54.6923 12.3478 54.1211 12.2395 53.548 12.2646Z"/>
<path d="M65.9921 10.326C66.6864 10.32 67.3717 10.4829 67.9895 10.8008C68.5944 11.1186 69.12 11.5694 69.527 12.1196C69.9499 11.5744 70.4827 11.125 71.0907 10.8008C71.7117 10.4788 72.4023 10.3157 73.1012 10.326C73.7196 10.3157 74.3332 10.4371 74.9015 10.6821C75.4326 10.92 75.9175 11.2504 76.3338 11.658C76.743 12.0706 77.0687 12.5587 77.2931 13.0955C77.5406 13.6466 77.6662 14.245 77.661 14.8495V21.8918H75.6636V14.8495C75.6652 14.5102 75.5986 14.1742 75.4676 13.8615C75.3366 13.5487 75.1441 13.2658 74.9015 13.0295C74.6671 12.7951 74.3907 12.6072 74.0868 12.4757C73.7708 12.3405 73.4315 12.2688 73.0881 12.2647C72.7358 12.2653 72.3872 12.3371 72.0631 12.4757C71.7557 12.6006 71.478 12.7893 71.2484 13.0295C71.0119 13.2624 70.8243 13.5404 70.6965 13.8472C70.5529 14.1614 70.4811 14.5038 70.4862 14.8495V21.8918H68.5808V14.8495C68.5856 14.5098 68.5203 14.1728 68.3891 13.8596C68.258 13.5465 68.0638 13.2639 67.8187 13.0295C67.3324 12.5455 66.677 12.271 65.9921 12.2647C65.6443 12.2671 65.3004 12.3388 64.9803 12.4757C64.6706 12.6036 64.3893 12.7919 64.1525 13.0295C63.9122 13.2669 63.7221 13.5503 63.5934 13.863C63.4647 14.1757 63.4001 14.5112 63.4034 14.8495V21.8918H61.4849V14.8495C61.482 14.2466 61.6027 13.6495 61.8397 13.0955C62.0688 12.5581 62.399 12.07 62.8121 11.658C63.2261 11.2475 63.7115 10.9168 64.2444 10.6821C64.7965 10.4443 65.3914 10.3231 65.9921 10.326Z"/>
<path d="M85.7031 10.3656C86.5062 10.3547 87.3028 10.5119 88.0421 10.8272C88.7445 11.146 89.3817 11.5932 89.9212 12.146C90.4747 12.6799 90.9208 13.3157 91.2353 14.0186C91.5412 14.7492 91.6976 15.534 91.6952 16.3265C91.6988 17.1148 91.5423 17.8956 91.2353 18.6212C90.914 19.3163 90.4686 19.9465 89.9212 20.4807C89.3891 21.042 88.7501 21.4905 88.0421 21.7994C87.321 22.1138 86.5417 22.2712 85.7556 22.261C85.0189 22.2663 84.2877 22.132 83.6006 21.8654C82.9397 21.6084 82.3333 21.228 81.8134 20.7444V27.3383H79.8161V16.2738C79.8136 15.4813 79.97 14.6964 80.276 13.9659C80.5904 13.2629 81.0365 12.6272 81.59 12.0932C82.1295 11.5405 82.7667 11.0933 83.4692 10.7744C84.1795 10.4913 84.9388 10.3524 85.7031 10.3656ZM85.7031 12.3174C84.927 12.3154 84.1676 12.5434 83.5201 12.9727C82.8726 13.402 82.3658 14.0136 82.0631 14.7308C81.66 15.7197 81.66 16.8279 82.0631 17.8167C82.2477 18.3109 82.5343 18.7603 82.9041 19.1355C83.287 19.4985 83.7322 19.7889 84.2182 19.9927C84.7046 20.1995 85.2274 20.306 85.7556 20.306C86.2838 20.306 86.8067 20.1995 87.2931 19.9927C87.7791 19.7889 88.2243 19.4985 88.6071 19.1355C88.9769 18.7603 89.2635 18.3109 89.4481 17.8167C89.8512 16.8279 89.8512 15.7197 89.4481 14.7308C89.1455 14.0136 88.6386 13.402 87.9911 12.9727C87.3436 12.5434 86.5842 12.3154 85.8082 12.3174H85.7031Z"/>
<path d="M99.0276 10.2997C99.8172 10.2972 100.599 10.4542 101.327 10.7613C102.752 11.3524 103.886 12.4856 104.481 13.9132C104.788 14.6388 104.944 15.4195 104.941 16.2078V21.8654H102.983V20.5466C101.894 21.5101 100.492 22.0402 99.0407 22.0369C98.2589 22.0471 97.4838 21.8898 96.7674 21.5753C95.3556 20.9894 94.2284 19.8723 93.6268 18.463C93.3232 17.7363 93.1669 16.9562 93.1669 16.1683C93.1669 15.3803 93.3232 14.6003 93.6268 13.8736C93.9445 13.1686 94.3901 12.5291 94.9409 11.9877C95.478 11.4382 96.1103 10.9913 96.8068 10.669C97.5154 10.3994 98.2703 10.2738 99.0276 10.2997ZM99.0276 12.2515C98.5039 12.2437 97.9844 12.3471 97.5033 12.5548C97.0118 12.7419 96.5643 13.0293 96.1892 13.3988C95.8315 13.7836 95.5466 14.2305 95.3482 14.7176C95.1422 15.2058 95.0361 15.7305 95.0361 16.2606C95.0361 16.7907 95.1422 17.3154 95.3482 17.8036C95.5491 18.2697 95.8343 18.6945 96.1892 19.0564C96.5668 19.4228 97.0136 19.7098 97.5033 19.9004C97.9835 20.1127 98.5029 20.2205 99.0276 20.2169C99.5651 20.2218 100.098 20.114 100.591 19.9004C101.553 19.4906 102.313 18.7146 102.704 17.7428C103.096 16.7711 103.088 15.6831 102.681 14.7176C102.482 14.2305 102.197 13.7836 101.84 13.3988C101.47 13.0306 101.031 12.7396 100.548 12.5426C100.065 12.3457 99.5486 12.2467 99.0276 12.2515Z"/>
<path d="M113.009 10.326C113.795 10.3224 114.573 10.4794 115.296 10.7876C116.001 11.1008 116.639 11.5487 117.175 12.1063C117.728 12.6453 118.174 13.2854 118.489 13.9922C118.795 14.7227 118.951 15.5076 118.949 16.3001V21.8917H116.951V16.2341C116.953 15.7035 116.846 15.1782 116.636 14.6912C116.455 14.1985 116.173 13.7493 115.808 13.3724C115.058 12.6463 114.051 12.248 113.009 12.2646C112.48 12.2627 111.957 12.3704 111.472 12.5811C111.005 12.7794 110.582 13.0659 110.223 13.4251C109.858 13.8041 109.572 14.2525 109.382 14.7439C109.179 15.2146 109.072 15.7213 109.067 16.2341V21.8917H107.175V16.2341C107.172 15.4417 107.329 14.6568 107.635 13.9263C108.225 12.5078 109.349 11.3801 110.762 10.7876C111.472 10.4829 112.237 10.3259 113.009 10.326Z"/>
<path d="M125.493 22.0896C124.892 22.0941 124.297 21.9729 123.745 21.7336C123.208 21.5069 122.721 21.1752 122.313 20.7577C121.9 20.3456 121.569 19.8576 121.34 19.3202C121.093 18.7691 120.967 18.1707 120.972 17.5662V10.5503H122.917V17.5662C122.915 17.9144 122.982 18.2596 123.114 18.5817C123.251 18.8872 123.438 19.1679 123.666 19.4125C123.901 19.647 124.177 19.8349 124.481 19.9664C124.802 20.0987 125.146 20.1659 125.493 20.1642C125.84 20.1659 126.184 20.0987 126.505 19.9664C126.812 19.8415 127.09 19.6527 127.319 19.4125C127.556 19.1719 127.747 18.8905 127.884 18.5817C128.016 18.2596 128.083 17.9144 128.081 17.5662V10.5503H130V22.6303C130.003 23.2445 129.873 23.852 129.619 24.4107C129.366 24.9546 129.009 25.443 128.568 25.8482C128.109 26.2611 127.579 26.5872 127.004 26.8109C126.384 27.0519 125.724 27.1728 125.059 27.1669V25.2415C125.463 25.2466 125.864 25.175 126.242 25.0305C126.593 24.907 126.918 24.7192 127.201 24.4766C127.463 24.2406 127.682 23.9592 127.845 23.6458C128.003 23.331 128.084 22.9829 128.081 22.6303V21.3115C127.705 21.571 127.293 21.7752 126.859 21.9182C126.416 22.0485 125.954 22.1064 125.493 22.0896Z"/>
<path d="M10.749 4.91895H11.9185V6.84437H10.749V4.91895ZM10.749 10.5501H11.9185V21.8917H10.749V10.5501Z"/>
<path d="M14.0999 7.64893H15.2825V10.6162H19.5401V11.7899H15.2825V19.1091C15.2797 19.3398 15.3237 19.5687 15.4118 19.7818C15.4999 19.9949 15.6303 20.1878 15.795 20.3488C15.9589 20.5159 16.1542 20.6485 16.3696 20.7391C16.5851 20.8297 16.8163 20.8763 17.0499 20.8763C17.2835 20.8763 17.5148 20.8297 17.7302 20.7391C17.9457 20.6485 18.141 20.5159 18.3049 20.3488C18.4696 20.1878 18.6 19.9949 18.6881 19.7818C18.7762 19.5687 18.8201 19.3398 18.8173 19.1091H19.9869C19.9942 19.5031 19.918 19.8942 19.7635 20.2565C19.6222 20.614 19.4073 20.9376 19.1327 21.206C18.8632 21.4728 18.5469 21.6874 18.1997 21.839C17.8388 21.9958 17.4498 22.0767 17.0565 22.0767C16.6632 22.0767 16.2742 21.9958 15.9133 21.839C15.5604 21.6908 15.2392 21.4759 14.9671 21.206C14.7011 20.9306 14.4873 20.6089 14.3364 20.2565C14.1777 19.8951 14.0971 19.5041 14.0999 19.1091V7.64893Z"/>

</svg>
