<svg id="Layer_1" data-name="Layer 1" xmlns="http://www.w3.org/2000/svg" viewBox="0 0 15 20"><defs><mask id="mask" x="-2" y="-2" width="19" height="24" maskUnits="userSpaceOnUse"><path d="M7.5 0A7.44 7.44 0 0 0 0 7.36a7 7 0 0 0 .66 3 46.58 46.58 0 0 0 6.52 9.49.44.44 0 0 0 .64 0 46.58 46.58 0 0 0 6.52-9.49 7 7 0 0 0 .66-3A7.44 7.44 0 0 0 7.5 0z" fill="#fff" id="path-2-inside-1"/></mask></defs><circle class="cls-2" cx="7.5" cy="7.5" r="1.5"/><g mask="url(#mask)"><path class="cls-2" d="M7.5 22a2.39 2.39 0 0 1-1.82-.83 48 48 0 0 1-6.84-10A9 9 0 0 1-2 7.36 9.44 9.44 0 0 1 7.5-2 9.44 9.44 0 0 1 17 7.36a9 9 0 0 1-.84 3.85 48.33 48.33 0 0 1-6.84 10A2.4 2.4 0 0 1 7.5 22zm1.18-3.47zM7.5 2A5.44 5.44 0 0 0 2 7.36a5.05 5.05 0 0 0 .47 2.16 39.37 39.37 0 0 0 5 7.61 39.68 39.68 0 0 0 5-7.61A5.05 5.05 0 0 0 13 7.36 5.44 5.44 0 0 0 7.5 2z"/></g></svg>