
<svg xmlns="http://www.w3.org/2000/svg" viewBox="0 0 64 64"><path d="M23 11a9 9 0 0 1 18 0v.61c-.51 4-2.49 5.77-4.28 6.6a8.17 8.17 0 0 1-2.54.69 6.4 6.4 0 0 1-.79 0h-.37a1 1 0 0 0-1 1 1 1 0 0 0 .37.78 1.13 1.13 0 0 0 .24.15 1.18 1.18 0 0 0 .19.06h.52a6.9 6.9 0 0 0 1-.05 9.84 9.84 0 0 0 2.66-.59V26a14.7 14.7 0 0 0 7.16 12.31c.37.23.75.45 1.12.65h-26.4c.38-.2.76-.41 1.14-.65A13.89 13.89 0 0 0 27 26v-7.5l-.4-.3A9 9 0 0 1 23 11zm20 .81a11 11 0 0 1-4 7.68V26a12.66 12.66 0 0 0 6.22 10.67 18.12 18.12 0 0 0 4.12 1.9c.56.17 1 .29 1.34.37l.37.07h7a6 6 0 0 1 6 6V56a1 1 0 0 1-1 1H58v6a1 1 0 0 1-1 1H9a1 1 0 0 1-1-1v-6H1a1 1 0 0 1-1-1V45a6 6 0 0 1 6-6h7l.38-.08c.34-.07.82-.19 1.4-.37a18.6 18.6 0 0 0 4.22-1.9A11.92 11.92 0 0 0 25 26v-6.51A11 11 0 1 1 43 11v.61a1.36 1.36 0 0 1 0 .2zM10 62v-5h46v5zm52-7H2V45a4 4 0 0 1 4-4h52a4 4 0 0 1 4 4z" fill-rule="evenodd"/></svg>