
<svg xmlns="http://www.w3.org/2000/svg" viewBox="0 0 63.61 62.68"><path d="M0 54.68a2 2 0 0 1 2-2h3v-3a2 2 0 0 1 2-2h30a2 2 0 0 1 2 2v3h3a2 2 0 0 1 2 2v6a2 2 0 0 1-2 2H2a2 2 0 0 1-2-2zm37-2H7v-3h30zm-35 2h40v6H2zm31.63-25.91l1.44-.65a1 1 0 0 1 1.32.5l2.12 4.72a1 1 0 0 1-.51 1.32L15.31 44.83a1 1 0 0 1-1.32-.5l-2.12-4.71a1 1 0 0 1 .51-1.33l1.44-.64L5 18l-1.45.65a1 1 0 0 1-1.32-.51L.15 13.46a1 1 0 0 1 .5-1.32L23.35 2a1 1 0 0 1 1.32.5l2.11 4.71a1 1 0 0 1-.5 1.32l-1.45.65 2.94 6.54L53.66 4.08l-.25-.56a1 1 0 0 1 .5-1.32L58.63.09a1 1 0 0 1 1.37.5l3.58 8A1 1 0 0 1 63 9.9L58.31 12a1 1 0 0 1-1.32-.5l-.4-.89L30.7 22.23zm-1.87.72L15.6 36.73 6.9 17.31l16.15-7.24zm-28.08-13l20.87-9.4-1.3-2.89-20.87 9.35zm32.59 16.8L15.4 42.6l-1.29-2.89L35 30.35zM30 20.36L55.76 8.8l-1.29-2.89-25.79 11.56zM61.29 8.48L58.4 9.77l-2.76-6.15 2.89-1.3z" fill-rule="evenodd"/></svg>