
<svg xmlns="http://www.w3.org/2000/svg" viewBox="0 0 50 64"><path d="M13.48 64H13.25a.94.94 0 0 1-.42-.24L.26 50.82a.9.9 0 0 1-.23-.4H0V.92A.92.92 0 0 1 .92 0h48.15a.92.92 0 0 1 .93.92v62.16a.92.92 0 0 1-.92.92h-35.6zM15 62h33V2H2v47h12a1.06 1.06 0 0 1 1 1zM3 51l10 10V51zm3-38a1 1 0 0 1 1-1h36a1 1 0 0 1 0 2H7a1 1 0 0 1-1-1zm1 6a1 1 0 0 0 0 2h36a1 1 0 0 0 0-2zm-1 8a1 1 0 0 1 1-1h36a1 1 0 1 1 0 2H7a1 1 0 0 1-1-1zm36 16a6 6 0 1 1-6-6 6 6 0 0 1 6 6zm2 0a8 8 0 1 1-8-8 8 8 0 0 1 8 8z" fill-rule="evenodd"/></svg>