
<svg xmlns="http://www.w3.org/2000/svg" viewBox="0 0 66 64"><path d="M0 2a2 2 0 0 1 2-2h62a2 2 0 0 1 2 2v45a2 2 0 0 1-2 2H41v13h11a1 1 0 0 1 0 2H14a1 1 0 0 1 0-2h11V49H2a2 2 0 0 1-2-2zm27 47h12v13H27zm37-2H2V2h62zM9 39a1 1 0 0 0 0 2h48a1 1 0 0 0 0-2zm3.28-17.18c-.48-.63-.84-1.14-1.07-1.5v-.05c.23-.34.57-.84 1-1.44a30.82 30.82 0 0 1 4.09-4.42 26.92 26.92 0 0 1 6-4 14.58 14.58 0 0 0-.67 19.75 28.2 28.2 0 0 1-5.11-3.7 32.94 32.94 0 0 1-4.24-4.64zm23.91 10.87a24.14 24.14 0 0 1-3.86.31 21 21 0 0 1-2.66-.17A12.59 12.59 0 0 1 32.52 8h1.06a12.6 12.6 0 0 1 2.61 24.66zm-6.88 2.11a14.7 14.7 0 0 0 3.35.39 14.47 14.47 0 0 0 4-.55 29 29 0 0 0 13.85-6.74 36.69 36.69 0 0 0 4.71-4.85c.53-.66.93-1.22 1.21-1.61l.31-.46.08-.13-.82-.57.85.52a1 1 0 0 0 0-1.08l-.83.56.83-.56V19.6l-.32-.44c-.29-.38-.71-.92-1.26-1.56a37.45 37.45 0 0 0-4.81-4.69A29 29 0 0 0 33.71 6H32.33A26 26 0 0 0 15 12.89a32.79 32.79 0 0 0-4.35 4.71c-.49.64-.86 1.18-1.1 1.56-.13.19-.22.34-.29.45l-.07.12.87.5-.87-.5a1 1 0 0 0 0 1l.86-.5-.86.5a.88.88 0 0 0 .07.13l.3.46c.26.39.64.94 1.14 1.61a35.69 35.69 0 0 0 4.46 4.85 26.44 26.44 0 0 0 14.15 7.02zM43.4 10.71a31.83 31.83 0 0 1 5.66 3.7 36.89 36.89 0 0 1 4.56 4.44c.51.6.9 1.1 1.16 1.45-.25.36-.62.88-1.12 1.5a35.25 35.25 0 0 1-4.45 4.58 30 30 0 0 1-5.52 3.76 14.6 14.6 0 0 0-.29-19.43zm-10.74 6.35a3.53 3.53 0 1 0 3.53 3.53 3.54 3.54 0 0 0-3.53-3.53zm-5.54 3.53a5.54 5.54 0 1 1 5.54 5.53 5.54 5.54 0 0 1-5.54-5.53z" fill-rule="evenodd"/></svg>