<svg xmlns="http://www.w3.org/2000/svg" viewBox="0 0 13 13"><path d="M12.65 9.8L10 8.24a.68.68 0 0 0-.37-.09.89.89 0 0 0-.63.22l-.78.8a.19.19 0 0 1-.09.05h-.27A2.5 2.5 0 0 1 7.4 9a7.33 7.33 0 0 1-.81-.52 9.52 9.52 0 0 1-1.1-1 9.3 9.3 0 0 1-1-1.1A5.64 5.64 0 0 1 4 5.6a2.37 2.37 0 0 1-.25-.66.58.58 0 0 1 0-.1.19.19 0 0 1 .05-.09l.67-.67a.91.91 0 0 0 .24-.44.74.74 0 0 0-.07-.49L3.2.36A1.2 1.2 0 0 0 3 .1a.51.51 0 0 0-.36-.1.61.61 0 0 0-.44.19L.37 2a1 1 0 0 0-.23.33 1.17 1.17 0 0 0-.14.41V3a3.15 3.15 0 0 0 .06.68 6.19 6.19 0 0 0 .26 1A8.48 8.48 0 0 0 .9 6.07a11.57 11.57 0 0 0 1 1.6 15.4 15.4 0 0 0 1.61 1.82 14.22 14.22 0 0 0 2.29 1.93 11.81 11.81 0 0 0 1.92 1.05 6.58 6.58 0 0 0 1.43.44A6.31 6.31 0 0 0 10 13h.27a1.37 1.37 0 0 0 .39-.13 1 1 0 0 0 .32-.23l1.83-1.82a.61.61 0 0 0 .19-.55.69.69 0 0 0-.35-.47z" fill-rule="evenodd"/></svg>