
<svg xmlns="http://www.w3.org/2000/svg" viewBox="0 0 64 64"><path d="M24.15.58A30 30 0 0 1 60 30a1 1 0 0 1-1 1H31v28a1 1 0 0 1-1 1A30 30 0 0 1 24.15.58zm16.57 3.55A28 28 0 1 0 29 58V30a1 1 0 0 1 1-1h28A28 28 0 0 0 40.72 4.13zM34 35a1 1 0 0 1 1-1h28a1 1 0 0 1 1 1 29 29 0 0 1-29 29 1 1 0 0 1-1-1V35zm2 8.83V49l13-13h-5.17zM41 36l-5 5v-5zm10.83 0L36 51.83V57l21-21zm8 0L36 59.83V62a26.58 26.58 0 0 0 3.35-.33l22.3-22.3A26.58 26.58 0 0 0 62 36zm.94 7.06L43.06 60.77c.77-.24 1.53-.52 2.27-.83a27 27 0 0 0 14.61-14.61c.31-.74.59-1.5.83-2.27z" fill-rule="evenodd"/></svg>