<svg width="55" height="74" viewBox="0 0 55 74" fill="none" xmlns="http://www.w3.org/2000/svg">
<path d="M54.9972 68.0434H35.2109C30.2871 68.0434 27.4957 73.9972 27.4957 73.9972C27.4957 73.9972 24.8918 68.3496 20.57 68.1057C20.57 68.1057 18.2302 68.049 18.2188 68.0434H0V0H54.9972V68.0434Z" fill="white"/>
<path d="M19.3092 40.6615C19.3238 40.3107 19.4149 39.9674 19.5763 39.6554C19.7377 39.3434 19.9654 39.0705 20.2435 38.8556C20.5137 38.6301 20.8321 38.4694 21.1742 38.3859C21.5163 38.3023 21.873 38.2981 22.217 38.3736C22.4754 38.4331 22.8104 38.5153 23.1455 38.6004C23.2642 37.7421 23.0454 36.8713 22.535 36.1707C22.0332 35.5068 21.31 35.0441 20.4962 34.8665L16.0011 41.2172H19.3092V40.6615ZM38.5049 11.2895C38.5049 11.2895 39.0046 12.5455 40.095 12.1882C40.4755 12.0635 40.7822 11.6864 40.6629 11.0542C40.6067 10.8545 40.5355 10.6592 40.45 10.4701L38.5049 11.2895ZM32.2578 12.2081C33.2914 12.5455 33.8309 11.2895 33.8309 11.2895L31.8744 10.4645C31.7716 10.6767 31.7017 10.9032 31.6671 11.1364C31.6159 11.3563 31.6479 11.5873 31.7569 11.7851C31.866 11.9829 32.0443 12.1336 32.2578 12.2081ZM18.6788 32.2355L12.7526 41.2172H14.4109L20.0163 33.3185L20.7461 32.5729C20.0324 32.4746 19.3433 32.3622 18.6788 32.2355ZM1.20685 1.21057V41.2172H7.95087L13.6301 32.0597L14.374 31.2404C12.9798 30.852 12.1024 30.5401 11.9802 30.5004L11.276 30.2481L11.6707 29.6158C13.9339 25.984 16.9524 21.8079 22.2283 18.383C23.6387 17.48 25.1756 16.7912 26.7887 16.3389C26.7724 14.0768 27.3605 11.8513 28.4925 9.89177C28.6282 9.6529 28.7761 9.42106 28.9354 9.19716C28.305 8.91365 27.7456 8.684 27.4191 8.53941V7.22674L29.7021 8.22187C30.5018 7.34308 31.4813 6.64623 32.5744 6.17859C33.6674 5.71094 34.8484 5.48343 36.0373 5.51148C39.3113 5.51148 41.4325 6.92905 42.6563 8.21337L44.928 7.2239V8.53657L43.4628 9.17448C43.6381 9.41441 43.7993 9.66433 43.9455 9.92296C45.8565 13.3251 45.9786 20.6965 43.2839 25.4567C41.1088 29.2983 38.3316 31.3906 36.0997 33.0719C35.2181 33.704 34.3769 34.3905 33.581 35.1274C32.0561 36.6215 31.8773 37.8888 31.8773 38.6344C32.2691 38.5352 32.5985 38.4388 32.8938 38.3708C33.2374 38.2955 33.5936 38.2998 33.9352 38.3834C34.2768 38.4669 34.5947 38.6275 34.8645 38.8527C35.1426 39.0676 35.3703 39.3406 35.5317 39.6526C35.693 39.9645 35.7842 40.3079 35.7987 40.6587V41.2257H53.7762V1.21057H1.20685ZM11.1965 41.2172L16.7706 32.726L17.4607 31.9945C16.7593 31.8443 16.1033 31.6883 15.507 31.5381L9.48709 41.2172H11.1965ZM13.1161 29.5932C13.5392 29.7264 14.1327 29.905 14.8596 30.1007C16.1293 28.2161 17.5682 26.4511 19.1587 24.8273C21.3784 22.5466 24.0234 20.7215 26.9449 19.4547L26.9761 20.7929C24.4079 22.0004 22.0752 23.6545 20.0873 25.6778C18.9501 26.8365 17.895 28.0728 16.9297 29.3777L16.8331 29.5081L16.0323 30.4182C16.6003 30.5599 17.225 30.7017 17.8866 30.8406C18.8867 29.4359 20.0099 28.1228 21.243 26.9168C22.9324 25.2529 24.8799 23.8723 27.0102 22.8285L27.0386 24.1979C25.2669 25.1526 23.6358 26.3471 22.1914 27.7475C21.4569 28.4547 20.7647 29.2045 20.1185 29.9929L19.9964 30.146L19.1076 31.0788C19.8118 31.2064 20.5501 31.3254 21.3111 31.4247C22.0284 30.5162 22.8134 29.6632 23.6595 28.873C24.6622 27.9007 25.8122 27.0923 27.067 26.4773L27.0982 27.9545C26.1892 28.4363 25.3441 29.0297 24.5823 29.7207C24.2984 29.9731 24.0144 30.2424 23.7305 30.5203L23.5942 30.662L22.6543 31.5806C24.5969 31.7833 26.5555 31.7833 28.4981 31.5806C32.7575 31.0901 36.361 28.9666 37.9341 26.0379C38.4248 25.1821 38.6949 24.2181 38.7201 23.2323C38.7454 22.2466 38.5251 21.27 38.0789 20.3903C37.2753 18.814 35.8811 17.7508 33.9331 17.2291C30.6562 16.3559 26.2094 17.2291 22.8587 19.3923C18.1166 22.4883 15.3338 26.1031 13.1161 29.6045V29.5932ZM30.0542 9.68764C29.8648 9.94483 29.6903 10.2127 29.5317 10.49C28.5703 12.186 28.0436 14.0929 27.9984 16.0412C30.1934 15.5819 32.3997 15.5649 34.2682 16.0639C36.5399 16.6678 38.2266 17.9748 39.1778 19.8403C40.2682 21.9836 40.2143 24.3765 39.0217 26.6049C37.264 29.8738 33.2942 32.2383 28.66 32.7742C26.4501 33.0022 24.2217 32.9861 22.0154 32.726L21.2345 33.8289C22.1438 34.1187 22.9386 34.6871 23.5061 35.4534C23.8721 35.9322 24.1331 36.4826 24.272 37.0688C24.4109 37.6549 24.4248 38.2637 24.3126 38.8556C25.0764 39.0597 25.6415 39.2185 25.8999 39.2893C25.9933 38.9272 26.2065 38.6072 26.505 38.3813C26.8034 38.1553 27.1696 38.0367 27.544 38.0447C28.3391 38.0447 29.0945 38.6117 29.2251 39.2723C29.6027 39.1674 30.111 39.0115 30.6676 38.8612C30.5739 37.8548 30.767 36.2104 32.7433 34.2711C33.577 33.498 34.458 32.7775 35.3813 32.1136C37.6359 30.4125 40.1916 28.4903 42.2417 24.867C44.7065 20.515 44.6213 13.5775 42.9005 10.5127C42.7319 10.2159 42.5421 9.9317 42.3326 9.66213L41.458 10.0449C41.6621 10.5033 41.7638 11.0005 41.7562 11.5021C41.7405 11.8404 41.6346 12.1683 41.4494 12.4519C41.2641 12.7355 41.0064 12.9646 40.7027 13.1153C40.3684 13.2656 40.0023 13.3317 39.6365 13.308C39.2707 13.2843 38.9163 13.1714 38.6042 12.9792C37.7325 12.3839 37.3861 11.3093 37.3321 11.1818L37.1021 10.6346L41.458 8.73503C39.9767 7.39038 38.0329 6.66829 36.0316 6.71925C33.652 6.71925 32.0022 7.62366 30.8692 8.73503L35.2308 10.6346L34.998 11.1818C34.944 11.3093 34.6061 12.33 33.8394 12.9197C33.5261 13.1392 33.1618 13.275 32.781 13.3142C32.4003 13.3534 32.0159 13.2947 31.6643 13.1437C31.3376 12.9898 31.0611 12.7469 30.8666 12.4429C30.6722 12.1389 30.5678 11.7863 30.5654 11.4256C30.5724 10.9493 30.6767 10.4795 30.872 10.0449L30.0486 9.68764H30.0542ZM37.3463 12.7779L36.2105 16.1433L35.0746 12.7779H37.3463ZM34.6998 40.6559V42.357C34.4158 41.9374 33.635 41.1804 32.7121 41.2002L28.2767 41.5036C28.0983 42.1143 27.8664 42.7082 27.5838 43.2784C27.2837 42.7058 27.0448 42.1034 26.8711 41.4809L22.4328 41.1662C21.4304 41.1095 20.7489 41.8126 20.4451 42.391V40.6559C20.4612 40.4719 20.5157 40.2933 20.6052 40.1317C20.6947 39.97 20.8172 39.8289 20.9647 39.7174C21.106 39.5986 21.2723 39.5132 21.4513 39.4676C21.6303 39.4219 21.8173 39.4172 21.9983 39.4538C22.9609 39.6693 26.6893 40.4744 26.6836 40.4659C26.6325 39.6154 27.0812 39.2156 27.5753 39.2071C28.0694 39.1986 28.518 39.5785 28.4527 40.4971C28.4527 40.4971 31.7126 39.7685 33.1721 39.4538C33.3532 39.4178 33.54 39.4228 33.7189 39.4685C33.8978 39.5141 34.0641 39.5992 34.2057 39.7174C34.353 39.8289 34.4751 39.9701 34.5641 40.1318C34.6531 40.2935 34.7071 40.472 34.7225 40.6559" fill="#E0640D"/>
<path d="M29.7987 49.6801C39.3227 48.6821 43.2498 50.3662 43.2498 50.3662C38.9379 50.1163 34.6126 50.2358 30.3212 50.7234C28.3911 50.9272 26.4805 51.2856 24.6079 51.7951C25.5762 52.1608 27.1437 52.6627 28.4555 52.6627C30.0628 52.6627 30.7272 52.124 30.7272 52.1183L30.9544 51.9227L31.2383 51.9936C31.2724 51.9936 34.8219 52.9036 36.7784 52.881C38.7349 52.8583 39.3652 52.192 39.3709 52.1835L39.5924 51.9284L39.9076 51.9851C39.9417 51.9851 43.4315 52.6258 45.513 52.606C46.9129 52.606 47.9067 52.3083 48.239 51.8178C48.3204 51.6783 48.3657 51.5207 48.3706 51.3593C48.3756 51.1979 48.3401 51.0378 48.2674 50.8935C47.8272 49.7595 43.8603 48.0102 35.0831 48.1803C28.2483 48.3107 24.6817 49.853 23.7248 50.8822C25.709 50.2802 27.7485 49.8775 29.8129 49.6801H29.7987ZM29.2194 55.3078C28.8332 54.7777 28.4783 54.2305 28.2085 53.774H28.2255C26.1157 53.6833 23.8157 52.4585 23.3784 52.2119C23.0433 52.3338 22.7082 52.4642 22.3703 52.606C21.7775 52.8615 21.2075 53.1669 20.6666 53.5189L18.5965 53.482C18.5965 53.482 19.4285 52.6315 21.5099 51.7129C21.7058 51.4294 22.6457 50.1082 25.2014 48.9543C24.4304 48.4447 23.5185 48.1899 22.5946 48.2257H13.5079L12.3494 48.0612C12.4942 48.2058 12.8634 48.5205 13.0025 48.685C14.1383 50.026 15.064 52.0673 16.0267 54.1795C17.7049 57.8651 19.4342 61.6642 22.1204 61.6642C22.6954 61.6556 23.2499 61.4501 23.6914 61.0821C24.1328 60.7142 24.4343 60.2061 24.5454 59.6428C24.7633 58.7541 24.6629 57.8173 24.2615 56.9948C24.0497 56.5064 23.6928 56.0947 23.2392 55.8153L29.81 55.8323C29.5999 55.6847 29.4091 55.5114 29.2421 55.3164L29.2194 55.3078ZM35.8498 42.9977V44.5712L34.8588 43.3407C34.5899 43.0492 34.2612 42.8188 33.8952 42.6652C33.5293 42.5116 33.1345 42.4384 32.7376 42.4505H29.0462L27.544 44.6421L26.0958 42.442H22.4328C22.036 42.4304 21.6414 42.5039 21.2755 42.6574C20.9096 42.811 20.5809 43.0411 20.3116 43.3322L19.3092 44.5683V42.527H1.20685V66.8525H19.6102C25.0225 66.8525 27.4986 72.1032 27.4986 72.1032C27.4986 72.1032 30.1309 66.8525 35.387 66.8525H53.7904V42.527H35.8129L35.8498 42.9977ZM49.335 50.5051C49.4757 50.8162 49.5359 51.1575 49.5101 51.4978C49.4843 51.8381 49.3733 52.1665 49.1874 52.4529C48.6195 53.2807 47.4013 53.7117 45.5527 53.7287C43.7041 53.7457 40.8731 53.2864 40.007 53.1361C39.5953 53.465 38.6667 53.9867 36.821 54.0008C34.9752 54.015 32.0959 53.3488 31.2412 53.1503C30.7064 53.4595 30.1123 53.6527 29.4977 53.7173C29.9663 54.4778 30.5105 55.1893 31.1219 55.8409L38.059 55.855C38.059 55.855 39.6975 56.887 39.6861 59.5407C39.6697 60.427 39.3016 61.2706 38.6627 61.8862C38.0238 62.5018 37.1663 62.839 36.2786 62.8238H22.3646V62.7756C22.2851 62.7756 22.2084 62.7756 22.1261 62.7756C18.7186 62.7756 16.8445 58.6391 15.0271 54.6388C14.8624 54.2787 14.1383 52.7222 13.7436 51.9397H6.16761C6.18181 51.1072 6.3324 50.2826 6.61343 49.4986C7.06776 48.3221 8.14964 47.1171 10.2083 47.1171H22.6117C24.182 47.1171 25.42 47.5651 26.3968 48.4837C28.4215 47.7579 31.2241 47.1738 35.0888 47.0803C44.556 46.845 48.6791 48.8125 49.3322 50.508L49.335 50.5051ZM12.0285 50.7915L13.2155 50.9332C12.2614 49.1981 11.3896 48.1718 10.143 48.1718C9.64065 48.1503 9.1437 48.2827 8.71887 48.5513C8.29404 48.8199 7.96165 49.2118 7.7663 49.6744C7.61558 50.0318 7.48755 50.3982 7.38295 50.7716L12.0285 50.7915ZM25.2809 56.8955C25.3842 57.0294 25.479 57.1695 25.5648 57.3151C25.775 57.8198 25.7721 58.3414 25.7665 59.0417C25.7667 59.8527 25.4925 60.64 24.9884 61.2758C24.8348 61.4518 24.6708 61.6185 24.4972 61.7748L25.3235 61.6926H36.2332C36.8299 61.7018 37.4063 61.4762 37.8378 61.0645C38.2692 60.6528 38.5211 60.0881 38.5389 59.4925C38.6213 57.6582 37.4911 56.9409 37.4911 56.9409L25.9312 56.9097L25.2809 56.8955Z" fill="#232661"/>
</svg>
